<svg width="173" height="41" viewBox="0 0 173 41" fill="none" xmlns="http://www.w3.org/2000/svg">
<path fill-rule="evenodd" clip-rule="evenodd" d="M49.4354 19.1913C50.0987 19.9862 50.9316 20.5963 51.9392 21.0267C52.9518 21.4495 54.081 21.6622 55.3265 21.6622C56.2404 21.6622 57.0987 21.5482 57.9037 21.3077C58.7037 21.0799 59.4177 20.7356 60.0303 20.29C60.648 19.8318 61.1265 19.2622 61.4708 18.5862C61.8253 17.9052 61.9974 17.1229 61.9974 16.2723C61.9974 15.4217 61.843 14.6951 61.5164 14.1128C61.2025 13.5356 60.7974 13.0723 60.3037 12.7255C59.8303 12.3761 59.3316 12.1077 58.8177 11.9204C58.3316 11.7381 57.8911 11.5938 57.5088 11.4849L54.2227 10.5356C53.805 10.4217 53.3772 10.2723 52.9367 10.09C52.5189 9.90773 52.1721 9.66723 51.8911 9.37102C51.6278 9.08495 51.4911 8.7128 51.4911 8.22925C51.4911 7.74571 51.6455 7.31533 51.9493 6.94318C52.2632 6.5609 52.681 6.2571 53.2227 6.03432C53.7645 5.81659 54.3721 5.70773 55.0506 5.71533C55.7594 5.72799 56.405 5.8647 56.9923 6.13305C57.5746 6.39634 58.0607 6.76849 58.4506 7.25204C58.8455 7.72545 59.0961 8.29254 59.2101 8.96596C59.2227 9.01659 59.2506 9.06216 59.2961 9.09761C59.3417 9.13305 59.3999 9.14318 59.4506 9.13305L61.7189 8.73811C61.7696 8.72545 61.8227 8.69761 61.8506 8.65204C61.886 8.60647 61.8961 8.54824 61.886 8.49761C61.6734 7.41659 61.2506 6.49254 60.6227 5.71026C60.005 4.92799 59.2177 4.33305 58.2683 3.92292C57.3265 3.5052 56.2632 3.28748 55.081 3.28242C53.9088 3.26976 52.8582 3.4647 51.9164 3.85963C50.9746 4.25963 50.2202 4.83685 49.6582 5.59634C49.1037 6.35583 48.8303 7.26976 48.8303 8.33305C48.8303 8.99128 48.9392 9.57862 49.162 10.0824C49.3797 10.5685 49.6759 10.9913 50.048 11.3457C50.4126 11.6875 50.8303 11.9736 51.2936 12.209C51.7518 12.4318 52.2253 12.6141 52.7164 12.7634L57.1164 14.0723C57.4202 14.1584 57.7037 14.2672 57.9848 14.3989C58.2582 14.5255 58.4987 14.6849 58.7037 14.8723C58.9164 15.0444 59.0759 15.2546 59.1898 15.5128C59.3088 15.7482 59.3721 16.0444 59.3721 16.4039C59.3721 16.9862 59.1999 17.4774 58.8632 17.8951C58.5265 18.3179 58.0582 18.6546 57.4506 18.89C56.8556 19.1255 56.1822 19.2394 55.4278 19.2394C54.2683 19.2394 53.2683 18.9482 52.4151 18.366C51.5797 17.7786 51.0278 16.966 50.7569 15.9255C50.7341 15.8217 50.6303 15.7533 50.5291 15.771L48.324 16.1204C48.2658 16.133 48.2202 16.1609 48.1873 16.2065C48.1544 16.252 48.1417 16.3027 48.1518 16.3609C48.3518 17.447 48.7746 18.3963 49.4329 19.2014L49.4354 19.1913ZM95.2734 3.85963C95.1822 3.85963 95.1088 3.93305 95.1088 4.02419V21.0824C95.1088 21.1736 95.1822 21.247 95.2734 21.247H97.6151V14.9786H101.038C101.425 15.4419 101.797 15.9204 102.164 16.4242C102.764 17.2115 103.319 18.0293 103.828 18.8824C104.291 19.6419 104.691 20.3862 105.033 21.1229L105.091 21.2419H107.868C107.987 21.2419 108.068 21.1229 108.018 21.0141C107.699 20.3179 107.354 19.6318 106.967 18.9634C106.448 18.0318 105.876 17.1052 105.253 16.1989C104.899 15.6799 104.534 15.171 104.162 14.6799C105.197 14.366 106.013 13.7938 106.608 12.9609C107.316 11.9558 107.671 10.7736 107.671 9.42419C107.671 8.49761 107.511 7.64697 107.185 6.88242C106.858 6.1052 106.362 5.45963 105.704 4.95077C105.053 4.43685 104.246 4.11026 103.304 3.96849C103.081 3.92799 102.853 3.9052 102.618 3.89507C102.39 3.87735 102.19 3.87229 102.018 3.87229H95.2683H95.2734V3.86723V3.85963ZM105.119 9.41406C105.119 9.85963 105.046 10.3052 104.896 10.7406C104.747 11.1584 104.514 11.5229 104.192 11.8368C103.883 12.133 103.483 12.3508 102.97 12.4647C102.81 12.5001 102.633 12.528 102.443 12.5457C102.261 12.5634 102.094 12.5685 101.952 12.5685H97.6202V6.25963H101.952C102.094 6.25963 102.256 6.2647 102.443 6.28242C102.625 6.28748 102.797 6.31786 102.952 6.35583C103.461 6.4647 103.866 6.67482 104.17 6.98368C104.489 7.29761 104.724 7.66976 104.873 8.09254C105.023 8.52039 105.096 8.95583 105.096 9.40647H105.119V9.41153V9.41406ZM172.046 4.15077V6.43685H166.749V21.2318H163.985V6.43685H158.689V4.15077C158.689 4.05963 158.762 3.98621 158.853 3.98621H171.881C171.972 3.98621 172.046 4.05963 172.046 4.15077ZM144.904 4.15077C144.904 4.05963 144.977 3.98621 145.068 3.98621H155.428C155.519 3.98621 155.592 4.05963 155.592 4.15077V6.41406H147.673V11.009H154.719V13.3862H147.673V18.8039H156.2V21.0672C156.2 21.1584 156.127 21.2318 156.035 21.2318H145.071C144.98 21.2318 144.906 21.1584 144.906 21.0672V4.15077H144.904ZM138.709 21.128L138.767 21.2318H140.894C140.985 21.2318 141.058 21.1584 141.058 21.0672V4.15837C141.058 4.06723 140.985 3.99381 140.894 3.99381H138.339V15.9356C137.894 15.2267 137.38 14.4495 136.797 13.6039C136.048 12.5001 135.248 11.3812 134.385 10.2444C133.539 9.09001 132.681 7.98115 131.808 6.9128C130.944 5.82672 130.134 4.87229 129.367 4.06216L129.304 3.99887H127.304C127.213 3.99887 127.139 4.07229 127.139 4.16343V21.0774C127.139 21.1685 127.213 21.2419 127.304 21.2419H129.858V8.44951C130.208 8.86216 130.577 9.31786 130.972 9.82166C131.504 10.5027 132.053 11.2267 132.618 12.0039C133.182 12.7634 133.749 13.5533 134.314 14.3761C134.896 15.1989 135.451 16.0166 135.987 16.8217C136.519 17.609 137.01 18.3812 137.461 19.1179C137.929 19.8596 138.342 20.5356 138.696 21.1305H138.709V21.128ZM123.863 4.25963L123.8 4.32799C123.377 4.79128 122.909 5.30014 122.4 5.85457V5.86723H122.387L122.096 6.18621C121.461 6.85457 120.8 7.54064 120.101 8.25457C119.42 8.95077 118.742 9.64191 118.061 10.3229C117.448 10.9406 116.866 11.5103 116.319 12.0495C116.964 12.5128 117.638 13.0672 118.347 13.7179C119.129 14.4368 119.896 15.2039 120.643 16.0141C121.392 16.8318 122.094 17.6596 122.747 18.5052C123.415 19.3508 123.975 20.1634 124.415 20.9331L124.451 20.9963C124.514 21.1052 124.433 21.2419 124.309 21.2419H121.354L121.291 21.1457C120.805 20.3913 120.256 19.6368 119.628 18.8824C119 18.1103 118.337 17.3786 117.628 16.6875C116.937 15.9786 116.228 15.328 115.509 14.733C114.909 14.2293 114.327 13.7913 113.754 13.4191V21.2419H111.154C111.063 21.2419 110.99 21.1685 110.99 21.0774V4.16343C110.99 4.07229 111.063 3.99887 111.154 3.99887H113.754V11.1584C113.868 11.0495 113.99 10.9356 114.109 10.8217C114.473 10.4672 114.863 10.0951 115.273 9.69001C115.954 9.009 116.623 8.33052 117.286 7.64951C117.949 6.96849 118.572 6.32292 119.154 5.70773C119.749 5.07989 120.251 4.53052 120.651 4.06216L120.714 3.99381H123.742C123.883 3.99381 123.959 4.16596 123.861 4.26723V4.26216L123.863 4.25963ZM89.7316 21.0951C89.4582 20.3634 89.1999 19.6495 88.9544 18.9533H88.9493C88.7139 18.2849 88.481 17.6039 88.2354 16.9128L88.1949 16.7989L87.6126 15.1406C87.3164 15.29 87.0075 15.4546 86.6987 15.6318C85.8354 16.1128 84.9847 16.6495 84.1341 17.2495C83.2708 17.8318 82.443 18.4622 81.648 19.1406C80.8607 19.7989 80.1392 20.4774 79.4987 21.1634L79.4354 21.2267H76.7265C76.6126 21.2267 76.5316 21.1128 76.5721 21.0039C77.1772 19.3356 77.7898 17.6723 78.4126 16.0166C78.9772 14.4976 79.5265 13.052 80.0632 11.69C80.6126 10.3305 81.1544 9.03178 81.6911 7.79887C82.2278 6.54064 82.7949 5.30267 83.3822 4.07229C83.4101 4.01406 83.4683 3.98115 83.5316 3.98115H85.7442C85.8075 3.98115 85.8632 4.01659 85.8936 4.07229C86.481 5.30773 87.048 6.54571 87.5848 7.79887C88.1215 9.03432 88.6531 10.3305 89.1898 11.69C89.7442 13.0495 90.3037 14.49 90.8708 16.0166C91.4987 17.6748 92.1113 19.3432 92.7164 21.0039C92.7569 21.1128 92.6759 21.2267 92.562 21.2267H89.7848L89.7341 21.0951H89.7316ZM86.6734 12.5736C86.4379 11.9609 86.205 11.3609 85.9696 10.7685V10.7558C85.5291 9.58368 85.0658 8.45204 84.5873 7.36849C84.0911 8.45457 83.6101 9.58621 83.1518 10.7634C82.6556 12.0672 82.1518 13.4217 81.6556 14.8217L81.2784 15.9027C82.1645 15.2343 83.0658 14.6166 83.9696 14.052C84.9113 13.4571 85.7974 12.9786 86.6202 12.6014C86.6329 12.6014 86.6379 12.5963 86.648 12.5887C86.6531 12.5887 86.6658 12.5761 86.6708 12.5761L86.6734 12.5736ZM77.2506 6.43178V4.14571C77.2506 4.05457 77.1772 3.98115 77.086 3.98115H64.0582C63.967 3.98115 63.8936 4.05457 63.8936 4.14571V6.43178H69.1898V21.0596C69.1898 21.1508 69.2632 21.2242 69.3544 21.2242H71.7949C71.886 21.2242 71.9594 21.1508 71.9594 21.0596V6.43685H77.2506V6.43178Z" fill="#FAFAFA"/>
<path d="M48.1494 25.8646H55.1266V26.9608H49.3444V30.2696H54.8178V31.3507H49.3444V36.0317H48.157V25.8671H48.1519L48.1494 25.8646Z" fill="#FAFAFA"/>
<path d="M61.8001 25.7177C62.5419 25.705 63.2406 25.8316 63.8862 26.0949C64.5318 26.3531 65.0862 26.7177 65.5444 27.1759C66.0077 27.6392 66.3622 28.1936 66.6179 28.8443C66.8811 29.4949 67.0052 30.1987 66.9951 30.9481C67.0077 31.6974 66.8811 32.3987 66.6179 33.0519C66.3596 33.7025 66.0052 34.2645 65.5444 34.7202C65.0862 35.1784 64.5318 35.5329 63.8862 35.7936C63.2406 36.0519 62.5444 36.1759 61.8001 36.1708C61.0584 36.1835 60.3596 36.0569 59.7141 35.7936C59.0685 35.5303 58.5141 35.1759 58.0508 34.7202C57.5925 34.2569 57.233 33.7025 56.9773 33.0519C56.7191 32.4012 56.5951 31.6974 56.6001 30.9481C56.5875 29.9481 56.8052 29.0443 57.2508 28.2443C57.6963 27.4392 58.3191 26.8164 59.1191 26.3708C59.9191 25.9253 60.8103 25.7075 61.8052 25.7202H61.8001V25.7177ZM61.8001 35.0417C62.9546 35.0417 63.9039 34.6594 64.6406 33.9C65.3773 33.1354 65.7495 32.1506 65.7495 30.9506C65.7495 29.7506 65.3773 28.7683 64.6406 28.0088C63.9039 27.2443 62.9546 26.8594 61.8001 26.8594C60.6457 26.8594 59.6913 27.2417 58.9546 28.0088C58.2178 28.7759 57.8457 29.7582 57.8457 30.9506C57.8457 32.143 58.2178 33.1278 58.9546 33.8924C59.6913 34.6569 60.6457 35.0417 61.8001 35.0417Z" fill="#FAFAFA"/>
<path d="M69.0811 25.8646H70.276V32.3279C70.276 33.214 70.5165 33.8874 70.995 34.3633C71.4811 34.8317 72.1494 35.0671 73 35.0671C73.8507 35.0671 74.5646 34.8266 75.0355 34.3481C75.5038 33.8621 75.7317 33.1937 75.7317 32.3304V25.8671H76.9266V32.4317C76.9266 33.6038 76.5722 34.5178 75.8583 35.1734C75.1545 35.8367 74.2 36.1684 73 36.1684C71.8 36.1684 70.8178 35.8317 70.1266 35.1633C69.4355 34.4899 69.0861 33.581 69.0861 32.4317V25.8671H69.0811V25.8646Z" fill="#FAFAFA"/>
<path d="M87.6808 25.8646V36.0291H86.3846L80.6808 27.6975V36.0291H79.4858V25.8646H80.7719L86.4757 34.1557V25.8646H87.6808Z" fill="#FAFAFA"/>
<path d="M90.3491 25.8645H93.7491C95.3719 25.8645 96.6453 26.3278 97.5719 27.2468C98.4909 28.1658 98.9542 29.3962 98.9542 30.943C98.9542 32.4898 98.4858 33.7936 97.5491 34.6848C96.6124 35.581 95.3491 36.0265 93.7491 36.0265H90.3491V25.862V25.8645ZM93.9593 34.9227C95.0909 34.9227 95.9947 34.5632 96.6732 33.8417C97.3542 33.1151 97.6909 32.1556 97.6909 30.9607C97.6909 29.7658 97.3491 28.7835 96.6681 28.0569C95.982 27.3253 95.0808 26.9607 93.9593 26.9607H91.5365V34.9202H93.9593V34.9227Z" fill="#FAFAFA"/>
<path d="M106.949 33.5051H102.041L101.076 36.0317H99.7671L103.78 25.8672H105.197L109.256 36.0317H107.919L106.954 33.5051H106.949ZM106.577 32.5279L104.491 27.0419L102.405 32.5279H106.577Z" fill="#FAFAFA"/>
<path d="M116.754 26.9051H113.441V36.0317H112.235V26.9051H108.904V25.8646H116.754V26.9051Z" fill="#FAFAFA"/>
<path d="M118.377 36.0317V25.8672H119.565V36.0317H118.377Z" fill="#FAFAFA"/>
<path d="M126.949 25.7177C127.691 25.705 128.39 25.8316 129.035 26.0949C129.681 26.3582 130.235 26.7177 130.694 27.1759C131.157 27.6392 131.511 28.1936 131.767 28.8443C132.025 29.4949 132.149 30.1987 132.144 30.9481C132.149 31.6974 132.025 32.3987 131.767 33.0519C131.509 33.705 131.154 34.2645 130.694 34.7202C130.235 35.1784 129.681 35.5329 129.035 35.7936C128.39 36.0519 127.694 36.1759 126.949 36.1708C126.2 36.1835 125.509 36.0569 124.858 35.7936C124.213 35.5303 123.658 35.1759 123.195 34.7202C122.737 34.2569 122.377 33.7025 122.121 33.0519C121.858 32.4012 121.734 31.6974 121.744 30.9481C121.732 29.9481 121.949 29.0443 122.395 28.2443C122.84 27.4392 123.463 26.8164 124.263 26.3708C125.063 25.9253 125.954 25.7075 126.949 25.7202V25.7177ZM126.949 35.0417C128.104 35.0417 129.045 34.6594 129.79 33.9C130.526 33.1354 130.899 32.1506 130.899 30.9506C130.899 29.7506 130.526 28.7683 129.79 28.0088C129.048 27.2443 128.104 26.8594 126.949 26.8594C125.795 26.8594 124.84 27.2417 124.099 28.0088C123.362 28.7734 122.99 29.7582 122.99 30.9506C122.99 32.143 123.362 33.1278 124.099 33.8924C124.84 34.6569 125.79 35.0417 126.949 35.0417Z" fill="#FAFAFA"/>
<path d="M142.496 25.8646V36.0291H141.205L135.501 27.6975V36.0291H134.314V25.8646H135.6L141.304 34.1557V25.8646H142.499H142.496Z" fill="#FAFAFA"/>
<path d="M0.572266 20.5001C0.572266 31.2317 9.26847 39.9279 20.0001 39.9279C30.7318 39.9279 39.428 31.2317 39.428 20.5001C39.428 9.76843 30.7318 1.07223 20.0001 1.07223C9.26847 1.07223 0.572266 9.76843 0.572266 20.5001Z" fill="#0C0C4F"/>
<path d="M20 40.5C8.97215 40.5 0 31.5278 0 20.5C0 9.47215 8.97215 0.5 20 0.5C31.0278 0.5 40 9.47215 40 20.5C40 31.5278 31.0278 40.5 20 40.5ZM20 1.64177C9.6 1.64177 1.14177 10.1 1.14177 20.5C1.14177 30.9 9.6 39.3582 20 39.3582C30.4 39.3582 38.8582 30.9 38.8582 20.5C38.8582 10.1 30.4 1.64177 20 1.64177Z" fill="url(#paint0_linear_48_10)"/>
<path fill-rule="evenodd" clip-rule="evenodd" d="M11.1768 15.786L11.6679 14.2594C11.7717 13.9506 12.0097 13.705 12.3262 13.6139L13.8578 13.1455C14.0705 13.0822 14.0705 12.781 13.8578 12.7101L12.3312 12.2189C12.0224 12.1151 11.7768 11.8772 11.6857 11.5607L11.2173 10.0291C11.154 9.81641 10.8527 9.81641 10.7819 10.0291L10.2907 11.5557C10.1945 11.8645 9.94895 12.105 9.6325 12.2012L8.10085 12.6696C7.88819 12.7329 7.88313 13.0341 8.10085 13.105L9.62743 13.5962C9.93629 13.7 10.1768 13.9379 10.273 14.2544L10.7414 15.786C10.8046 15.9987 11.1059 16.0038 11.1768 15.786Z" fill="#FAFAFA"/>
<path fill-rule="evenodd" clip-rule="evenodd" d="M35.405 14.8999C34.7696 14.1911 33.7873 13.7961 32.8278 13.6316C31.8632 13.4771 30.8506 13.4898 29.8961 13.6594C27.9645 13.986 26.2101 14.786 24.6835 15.7733C23.8885 16.2594 23.2101 16.8189 22.5113 17.386C22.1746 17.6771 21.8658 17.9809 21.5468 18.2822L20.6658 19.1556C19.7113 20.1506 18.7746 21.0594 17.8658 21.8138C16.9518 22.5632 16.1012 23.1328 15.2607 23.5278C14.4202 23.9278 13.524 24.1632 12.3468 24.2012C11.1873 24.2417 9.81006 24.029 8.34171 23.6873C6.86069 23.3455 5.31386 22.8518 3.57715 22.429C4.18221 24.11 5.09107 25.5936 6.26322 26.948C7.4455 28.2797 8.92652 29.4974 10.8227 30.2974C12.6961 31.1151 15.0455 31.4062 17.2455 30.9657C19.4506 30.543 21.3873 29.5202 22.9493 28.343C24.5215 27.148 25.7898 25.7936 26.8582 24.3835C27.1544 23.9961 27.3088 23.7708 27.5215 23.4695L28.1088 22.5961C28.5215 22.0543 28.8911 21.4366 29.2961 20.905C30.0911 19.786 30.8784 18.6594 31.7923 17.624C32.2506 17.0974 32.7341 16.6012 33.3063 16.1151C33.5923 15.8797 33.9012 15.6518 34.243 15.4417C34.5923 15.2189 34.9569 15.0417 35.4075 14.91L35.4025 14.8974L35.405 14.8999Z" fill="url(#paint1_linear_48_10)"/>
<path fill-rule="evenodd" clip-rule="evenodd" d="M35.4052 14.8999C34.7242 13.186 33.4634 11.7455 31.7697 10.6822C30.0837 9.63156 27.7469 9.09485 25.433 9.55055C24.2913 9.77333 23.1824 10.1961 22.2052 10.7683C21.233 11.3328 20.3647 12.0138 19.6178 12.7455C19.2406 13.11 18.9039 13.4949 18.5596 13.8771L17.6862 14.9961L16.3318 16.7961C14.6052 19.11 12.7444 21.824 9.69125 22.6316C6.69632 23.4189 5.39505 22.7227 3.57227 22.4316C3.90897 23.2949 4.32163 24.1354 4.88113 24.8721C5.43049 25.6265 6.08113 26.3303 6.89378 26.9354C7.30644 27.2265 7.73429 27.5126 8.21277 27.7581C8.69378 27.9936 9.20771 28.1987 9.75454 28.3581C10.8457 28.6619 12.0811 28.7632 13.2685 28.6037C14.4634 28.4442 15.6001 28.067 16.5951 27.5632C17.6001 27.067 18.4685 26.4594 19.2533 25.8265C20.8026 24.5404 22.0077 23.1176 23.0305 21.6771C23.5444 20.9581 24.0077 20.2265 24.4356 19.4949L24.9444 18.6214C25.0988 18.3632 25.2583 18.1075 25.4128 17.8721C26.0533 16.9126 26.6811 16.1404 27.4482 15.5632C28.2026 14.9683 29.2482 14.5354 30.6482 14.4316C32.0432 14.3278 33.6482 14.5176 35.4128 14.9176L35.4077 14.8999H35.4052Z" fill="#FAFAFA"/>
<path fill-rule="evenodd" clip-rule="evenodd" d="M27.8687 29.1355C27.8687 30.3937 28.8914 31.4165 30.1497 31.4165C31.4079 31.4165 32.4231 30.3937 32.4231 29.1355C32.4231 27.8773 31.4054 26.8545 30.1497 26.8545C28.894 26.8545 27.8687 27.8773 27.8687 29.1355Z" fill="url(#paint2_linear_48_10)"/>
<defs>
<linearGradient id="paint0_linear_48_10" x1="42.8684" y1="6.29493" x2="-2.90886" y2="34.7278" gradientUnits="userSpaceOnUse">
<stop stop-color="#EC796B"/>
<stop offset="1" stop-color="#E175B1"/>
</linearGradient>
<linearGradient id="paint1_linear_48_10" x1="22.9518" y1="8.62903" x2="13.5645" y2="35.8898" gradientUnits="userSpaceOnUse">
<stop stop-color="#EC796B"/>
<stop offset="1" stop-color="#E175B1"/>
</linearGradient>
<linearGradient id="paint2_linear_48_10" x1="32.7547" y1="27.5152" x2="27.537" y2="30.7557" gradientUnits="userSpaceOnUse">
<stop stop-color="#EC796B"/>
<stop offset="1" stop-color="#E175B1"/>
</linearGradient>
</defs>
</svg>
